<svg xmlns="http://www.w3.org/2000/svg" xmlns:xlink="http://www.w3.org/1999/xlink" viewBox="0,0,256,256" width="40px" height="40px" fill-rule="nonzero"><g fill="none" fill-rule="nonzero" stroke="none" stroke-width="1" stroke-linecap="butt" stroke-linejoin="miter" stroke-miterlimit="10" stroke-dasharray="" stroke-dashoffset="0" font-family="none" font-weight="none" font-size="none" text-anchor="none" style="mix-blend-mode: normal"><g transform="scale(6.4,6.4)"><path d="M20,38.5c-10.201,0 -18.5,-8.299 -18.5,-18.5c0,-10.201 8.299,-18.5 18.5,-18.5c10.201,0 18.5,8.299 18.5,18.5c0,10.201 -8.299,18.5 -18.5,18.5z" fill="#f2b9d0"></path><path d="M20,2c9.925,0 18,8.075 18,18c0,9.925 -8.075,18 -18,18c-9.925,0 -18,-8.075 -18,-18c0,-9.925 8.075,-18 18,-18M20,1c-10.493,0 -19,8.507 -19,19c0,10.493 8.507,19 19,19c10.493,0 19,-8.507 19,-19c0,-10.493 -8.507,-19 -19,-19z" fill="#c74378"></path><g fill="#ffffff"><path d="M20.053,9c-7.664,0 -11.734,5.144 -11.734,10.746c0,2.604 1.386,5.847 3.604,6.88c0.336,0.156 0.516,0.088 0.594,-0.237c0.059,-0.247 0.358,-1.453 0.493,-2.014c0.043,-0.179 0.022,-0.333 -0.123,-0.509c-0.734,-0.89 -1.322,-2.526 -1.322,-4.052c0,-3.917 2.966,-7.706 8.018,-7.706c4.363,0 7.418,2.973 7.418,7.225c0,4.804 -2.426,8.132 -5.582,8.132c-1.743,0 -3.048,-1.442 -2.63,-3.209c0.501,-2.111 1.471,-4.389 1.471,-5.912c0,-1.364 -0.732,-2.501 -2.247,-2.501c-1.782,0 -3.213,1.843 -3.213,4.313c0,1.573 0.531,2.636 0.531,2.636c0,0 -1.76,7.441 -2.082,8.827c-0.353,1.516 -0.22,3.634 -0.067,5.039c0.405,0.166 0.818,0.316 1.238,0.453c0.724,-1.182 1.791,-3.094 2.188,-4.624c0.216,-0.831 1.106,-4.221 1.106,-4.221c0.579,1.104 2.271,2.039 4.07,2.039c5.356,0 9.215,-4.925 9.215,-11.046c0.001,-5.87 -4.786,-10.259 -10.946,-10.259z"></path></g></g></g></svg>