<svg xmlns="http://www.w3.org/2000/svg" xmlns:xlink="http://www.w3.org/1999/xlink" viewBox="0,0,256,256" width="30px" height="30px" fill-rule="nonzero"><g fill="none" fill-rule="nonzero" stroke="none" stroke-width="1" stroke-linecap="butt" stroke-linejoin="miter" stroke-miterlimit="10" stroke-dasharray="" stroke-dashoffset="0" font-family="none" font-weight="none" font-size="none" text-anchor="none" style="mix-blend-mode: normal"><g transform="scale(6.4,6.4)"><path d="M37.625,28.838c-0.378,1.96 -1.985,3.453 -3.97,3.733c-3.119,0.467 -7.817,0.928 -13.677,0.928c-5.765,0 -10.558,-0.533 -13.772,-1c-1.985,-0.28 -3.592,-1.773 -3.97,-3.733c-0.378,-2.147 -0.732,-4.82 -0.732,-8.74c0,-3.92 0.397,-6.718 0.775,-8.865c0.378,-1.96 1.985,-3.453 3.97,-3.733c3.119,-0.467 7.912,-1.053 13.772,-1.053c5.86,0 10.464,0.658 13.678,1.125c1.985,0.28 3.592,1.773 3.97,3.733c0.378,2.147 0.832,4.945 0.832,8.865c-0.096,3.92 -0.498,6.594 -0.876,8.74z" fill="#f7acc0"></path><path d="M20.003,7c5.815,0 10.841,0.553 14.037,1.017c1.575,0.222 2.832,1.401 3.124,2.917c0.359,2.036 0.836,5.192 0.836,9.042c-0.106,4.38 -0.569,7.576 -0.833,9.075c-0.295,1.532 -1.552,2.71 -3.136,2.934c-2.04,0.305 -7.493,1.015 -14.028,1.015c-6.121,0 -11.42,-0.637 -14.037,-1.017c-1.575,-0.222 -2.832,-1.401 -3.124,-2.917c-0.339,-1.919 -0.742,-5.05 -0.742,-9.066c0,-4.016 0.403,-7.147 0.738,-9.051c0.295,-1.532 1.552,-2.71 3.136,-2.934c2.041,-0.305 7.493,-1.015 14.029,-1.015M20.003,6c-5.86,0 -11.058,0.56 -14.177,1.027c-1.985,0.28 -3.592,1.773 -3.97,3.733c-0.378,2.147 -0.756,5.32 -0.756,9.24c0,3.92 0.378,7.093 0.756,9.24c0.378,1.96 1.985,3.453 3.97,3.733c3.213,0.467 8.411,1.027 14.177,1.027c5.86,0 11.058,-0.56 14.177,-1.027c1.985,-0.28 3.592,-1.773 3.97,-3.733c0.377,-2.147 0.755,-5.32 0.85,-9.24c0,-3.92 -0.473,-7.093 -0.851,-9.24c-0.378,-1.96 -1.985,-3.453 -3.97,-3.733c-3.213,-0.467 -8.316,-1.027 -14.176,-1.027z" fill="#dd7dac"></path><path d="M16,26v-12l11,6z" fill="#ffffff"></path></g></g></svg>