<svg xmlns="http://www.w3.org/2000/svg" xmlns:xlink="http://www.w3.org/1999/xlink" viewBox="0,0,256,256" width="48px" height="48px" fill-rule="nonzero"><defs><linearGradient x1="37.081" y1="10.918" x2="10.918" y2="37.081" gradientUnits="userSpaceOnUse" id="color-1"><stop offset="0" stop-color="#ef6bd4"></stop><stop offset="0.033" stop-color="#ff8ac4"></stop><stop offset="0.197" stop-color="#eda1d7"></stop><stop offset="0.362" stop-color="#fad8f1"></stop><stop offset="0.525" stop-color="#ffebfd"></stop><stop offset="0.687" stop-color="#ffeef8"></stop><stop offset="0.846" stop-color="#fbfdff"></stop><stop offset="1" stop-color="#ffffff"></stop></linearGradient></defs><g fill="none" fill-rule="nonzero" stroke="none" stroke-width="none" stroke-linecap="none" stroke-linejoin="none" stroke-miterlimit="10" stroke-dasharray="" stroke-dashoffset="0" font-family="none" font-weight="none" font-size="none" text-anchor="none" style="mix-blend-mode: normal"><g transform="scale(5.33333,5.33333)"><circle cx="24" cy="24" r="18.5" fill="url(#color-1)" stroke="none" stroke-width="1" stroke-linecap="butt" stroke-linejoin="miter"></circle><path d="M34.678,39.109c-3.017,2.136 -6.701,3.391 -10.678,3.391c-10.217,0 -18.5,-8.283 -18.5,-18.5c0,-3.009 0.718,-5.849 1.992,-8.361" fill="none" stroke="#fb9dc9" stroke-width="3" stroke-linecap="round" stroke-linejoin="round"></path><path d="M13.941,8.471c2.895,-1.879 6.35,-2.971 10.059,-2.971c10.217,0 18.5,8.283 18.5,18.5c0,3.4 -0.917,6.587 -2.518,9.324" fill="none" stroke="#fb9dc9" stroke-width="3" stroke-linecap="round" stroke-linejoin="round"></path><path d="M17,29h4v13.235c0.979,0.16 1.976,0.265 3,0.265c1.024,0 2.021,-0.105 3,-0.265v-13.235h3.625c0.504,0 0.93,-0.376 0.992,-0.876l0.375,-3c0.036,-0.284 -0.053,-0.57 -0.243,-0.786c-0.189,-0.215 -0.462,-0.338 -0.749,-0.338h-4v-3.5c0,-1.103 0.897,-2 2,-2h2c0.552,0 1,-0.447 1,-1v-3.375c0,-0.518 -0.396,-0.95 -0.911,-0.996c-0.059,-0.005 -1.469,-0.129 -3.255,-0.129c-4.407,0 -6.834,2.617 -6.834,7.368v3.632h-4c-0.552,0 -1,0.447 -1,1v3c0,0.553 0.448,1 1,1z" fill="#fb9dc9" stroke="none" stroke-width="1" stroke-linecap="butt" stroke-linejoin="miter"></path></g></g></svg>